<?xml version="1.0" standalone="no"?>
<!DOCTYPE svg PUBLIC "-//W3C//DTD SVG 20010904//EN"
 "http://www.w3.org/TR/2001/REC-SVG-20010904/DTD/svg10.dtd">
<svg version="1.0" xmlns="http://www.w3.org/2000/svg"
 width="600.000000pt" height="600.000000pt" viewBox="0 0 600.000000 600.000000"
 preserveAspectRatio="xMidYMid meet">

<g transform="translate(0.000000,600.000000) scale(0.100000,-0.100000)"
fill="#000000" stroke="none">
<path d="M1227 5060 c-94 -28 -97 -116 -7 -207 47 -48 49 -52 39 -82 -7 -20
-36 -49 -84 -85 -40 -31 -75 -63 -79 -72 -3 -9 3 -31 14 -49 24 -39 25 -76 4
-120 -20 -42 -45 -59 -114 -75 -67 -16 -96 -34 -116 -73 -21 -39 -11 -75 25
-90 l29 -12 -59 -29 c-73 -35 -151 -117 -173 -182 -25 -74 -20 -123 19 -210
45 -99 92 -252 145 -474 82 -343 187 -614 346 -901 147 -264 373 -578 520
-721 318 -311 671 -510 1083 -613 239 -60 695 -115 945 -115 128 0 414 22 506
39 30 6 96 12 146 14 70 4 117 14 217 46 130 42 177 48 237 31 28 -8 42 -6 76
11 23 11 95 31 161 45 65 13 131 30 146 36 52 20 64 99 21 139 -25 23 -31 24
-172 24 -126 0 -151 3 -179 19 l-31 19 -33 -27 c-30 -25 -38 -28 -89 -23 -30
3 -80 13 -110 22 -40 11 -77 14 -135 10 -122 -9 -131 9 -50 105 21 25 44 60
52 79 14 32 13 36 -3 48 -25 18 -88 16 -127 -3 -18 -9 -78 -61 -134 -116 -74
-73 -107 -98 -120 -94 -10 3 -57 15 -105 26 -379 89 -685 239 -930 454 -159
139 -384 411 -483 582 -112 196 -191 444 -229 721 -20 142 -53 533 -62 724
-12 248 18 277 214 208 118 -41 174 -51 212 -38 35 13 34 11 15 48 -22 44
-102 109 -180 146 -78 38 -243 95 -272 95 -11 0 -46 16 -79 37 -111 68 -159
93 -181 93 -16 0 -27 10 -37 33 -23 55 -55 73 -178 96 -141 26 -164 41 -160
103 5 70 -16 83 -143 84 -56 1 -112 5 -124 9 -27 8 -37 47 -22 95 28 93 4 147
-75 169 -45 12 -58 13 -97 1z m112 -46 c36 -45 28 -53 -51 -56 -68 -3 -73 -5
-72 -25 0 -12 -3 -20 -8 -17 -16 10 -8 72 13 98 16 20 29 26 59 26 30 0 43 -6
59 -26z m186 -300 c-22 -16 -75 -19 -75 -4 0 15 39 27 68 22 24 -5 24 -6 7
-18z m33 -120 c60 -17 122 -50 122 -64 0 -4 -9 -6 -20 -3 -19 5 -20 2 -14 -36
7 -41 6 -41 -25 -41 -48 0 -88 26 -111 70 -19 37 -27 90 -14 90 3 0 31 -7 62
-16z m-74 -100 c9 -8 16 -18 16 -21 0 -3 -29 -2 -65 2 -41 4 -78 2 -100 -5
-59 -19 -62 -5 -4 17 65 26 131 29 153 7z m342 -75 c-4 -22 0 -38 16 -59 29
-40 18 -47 -21 -15 l-31 27 0 -41 c0 -28 -7 -48 -20 -61 -33 -33 -37 -30 -113
64 -30 37 -63 31 -53 -10 l7 -25 -32 16 c-52 28 -125 29 -229 5 -52 -12 -106
-24 -120 -26 -23 -4 -22 -3 5 10 17 8 91 29 165 46 74 18 185 47 245 65 61 19
127 34 149 34 38 1 38 0 32 -30z m571 -134 c36 -49 -24 -146 -111 -179 -162
-61 -430 -116 -565 -116 -73 0 -115 -14 -266 -91 -66 -33 -137 -63 -159 -66
-35 -6 -38 -4 -32 15 10 30 -6 34 -79 21 -58 -10 -65 -13 -65 -35 0 -13 -9
-28 -21 -35 -43 -23 -159 49 -159 98 0 22 29 53 49 53 14 0 14 2 1 10 -26 17
-79 11 -100 -10 -29 -29 -41 -64 -48 -140 l-7 -65 -24 38 c-70 113 -18 199
146 242 81 21 93 20 93 -11 0 -40 18 -64 63 -85 43 -19 83 -24 111 -13 23 9
20 25 -11 50 -27 22 -27 23 -9 37 17 13 16 15 -19 36 -28 16 -35 25 -27 33 6
6 62 21 124 34 62 13 208 51 323 83 347 100 469 121 668 117 96 -1 111 -4 124
-21z m-1317 -33 c0 -4 -17 -14 -37 -21 -65 -24 -69 -23 -28 3 40 26 65 33 65
18z m1642 -109 c16 -14 26 -53 13 -53 -11 0 -95 65 -95 73 0 14 61 -1 82 -20z
m-446 -159 c25 -37 30 -161 10 -253 -14 -68 -14 -75 1 -86 23 -17 33 -109 23
-213 -6 -70 -5 -89 6 -95 17 -9 19 -112 4 -151 -8 -23 -7 -26 11 -26 11 0 22
-7 26 -16 8 -23 -13 -65 -31 -58 -18 7 -32 -19 -40 -76 -5 -38 -4 -42 6 -26
29 42 50 66 58 66 5 0 12 -15 15 -32 20 -91 107 -408 122 -441 16 -37 16 -38
-10 -65 -29 -30 -36 -62 -13 -62 24 0 78 -52 97 -95 13 -27 19 -33 19 -19 0
11 3 23 6 27 10 10 121 -109 145 -155 28 -57 78 -126 157 -221 37 -44 66 -88
67 -101 1 -34 52 -102 115 -154 63 -52 182 -110 290 -143 66 -19 81 -28 123
-75 65 -72 154 -116 236 -117 48 0 60 -4 64 -18 6 -24 49 -44 147 -68 45 -12
90 -27 98 -33 12 -11 10 -14 -14 -25 -40 -17 -103 -16 -155 3 -24 8 -65 19
-91 24 -25 5 -101 32 -169 61 -163 68 -220 74 -303 30 -66 -35 -81 -34 -46 4
43 46 11 39 -39 -8 -60 -56 -73 -54 -127 17 -35 46 -38 48 -75 42 -65 -10
-120 29 -87 62 9 9 8 12 -5 12 -21 0 -21 4 -1 35 22 33 11 45 -44 45 -67 0
-171 18 -210 37 -30 14 -72 64 -72 86 0 9 79 8 103 -2 17 -6 17 -8 4 -20 -9
-7 -13 -19 -11 -26 12 -31 157 -58 192 -37 19 12 -133 161 -231 226 -76 50
-266 143 -413 202 -33 14 -76 38 -95 55 l-34 30 30 -6 c31 -7 40 -11 139 -64
65 -35 97 -39 120 -15 19 18 13 53 -16 101 -26 44 -63 71 -107 79 -48 9 -62
17 -121 69 l-50 45 27 6 c82 17 103 42 88 102 -7 28 -128 149 -133 133 -2 -5
6 -28 17 -50 23 -43 28 -85 10 -79 -6 2 -20 28 -32 58 -34 85 -127 137 -127
71 0 -40 -17 -48 -32 -16 -8 18 -16 24 -30 19 -55 -17 -98 33 -98 112 0 47 -2
51 -70 114 -38 36 -70 68 -70 72 0 4 16 0 35 -8 60 -25 105 -14 105 26 0 22
-75 126 -97 134 -12 5 -28 -5 -56 -33 -64 -67 -84 -49 -72 64 l7 64 -27 -12
c-26 -12 -27 -13 -21 -79 l6 -68 -35 0 c-19 0 -35 -5 -35 -11 0 -7 35 -45 78
-87 42 -41 71 -71 64 -67 -8 4 -26 -1 -43 -14 -15 -11 -35 -21 -43 -21 -19 0
-42 34 -52 75 -13 58 -44 105 -79 122 -28 13 -32 19 -23 33 18 29 0 69 -46
102 l-44 31 34 47 c40 56 64 65 98 39 36 -28 43 -58 17 -75 -12 -9 -21 -26
-21 -40 0 -53 58 -122 77 -92 16 26 7 165 -13 199 -30 51 -69 74 -120 72 -36
-1 -47 3 -64 24 -26 33 -27 83 -2 83 11 0 23 12 30 34 14 38 23 43 100 60 41
8 57 17 70 38 16 26 15 30 -18 97 -27 56 -31 75 -23 93 8 19 17 22 74 23 82 1
152 35 157 78 3 25 6 27 53 27 47 0 80 17 90 49 3 7 20 6 59 -4 96 -26 129
-16 68 20 l-32 18 55 19 c29 10 88 24 129 30 41 6 86 17 100 24 39 21 68 17
86 -12z m-1316 -214 c0 -5 -9 -10 -21 -10 -11 0 -17 5 -14 10 3 6 13 10 21 10
8 0 14 -4 14 -10z m434 -112 c27 -43 -73 -83 -112 -45 -15 16 -14 17 23 18
l40 1 -50 23 -50 24 69 -2 c53 -1 71 -6 80 -19z m-229 -38 c8 -13 -12 -40 -29
-40 -22 0 -39 18 -33 34 7 18 52 22 62 6z m75 -60 c0 -5 -7 -10 -15 -10 -8 0
-15 5 -15 10 0 6 7 10 15 10 8 0 15 -4 15 -10z m-64 -47 c-10 -10 -19 5 -10
18 6 11 8 11 12 0 2 -7 1 -15 -2 -18z m-7 -97 c18 -21 -17 -30 -45 -11 -13 9
-24 18 -24 20 0 11 59 4 69 -9z m-177 -81 c6 -14 8 -28 5 -31 -10 -11 -37 17
-37 37 0 27 18 23 32 -6z m168 4 c11 -19 9 -20 -22 -17 -22 2 -34 9 -36 21 -5
26 44 23 58 -4z m-25 -59 c8 -13 -5 -13 -25 0 -13 8 -13 10 2 10 9 0 20 -4 23
-10z m-44 -207 c10 -31 19 -65 19 -76 0 -19 -1 -19 -20 -2 -19 17 -52 107 -65
175 l-7 35 27 -38 c14 -21 35 -63 46 -94z m-50 -12 c23 -47 50 -98 60 -112 10
-15 30 -60 45 -100 15 -41 35 -91 45 -111 11 -21 15 -38 9 -38 -21 0 -70 85
-143 247 -88 197 -95 215 -73 207 9 -3 35 -45 57 -93z m324 -130 c7 -12 -31
-25 -46 -15 -8 4 -7 9 2 15 18 11 36 11 44 0z m215 -21 c0 -5 -4 -10 -10 -10
-5 0 -10 5 -10 10 0 6 5 10 10 10 6 0 10 -4 10 -10z m137 -155 c6 -22 14 -58
18 -79 4 -27 18 -50 40 -70 29 -28 65 -84 65 -102 0 -15 -63 8 -186 67 -122
60 -130 66 -152 109 -12 25 -22 48 -22 53 0 15 57 6 108 -18 93 -43 131 -27
98 41 -20 43 -20 46 2 42 10 -2 22 -19 29 -43z m-522 -146 c38 -91 62 -130
147 -235 26 -31 55 -73 65 -93 10 -20 39 -56 64 -81 36 -35 52 -62 73 -125 31
-88 63 -130 106 -139 22 -4 39 -21 69 -69 38 -59 72 -87 106 -87 9 0 12 -6 9
-15 -9 -23 89 -120 135 -133 48 -15 87 -45 106 -82 19 -36 11 -41 -49 -28 -40
8 -63 24 -136 92 -48 44 -119 110 -159 145 -53 46 -95 99 -161 198 -50 74 -87
139 -84 144 3 5 1 9 -4 9 -13 0 -236 336 -288 435 -41 75 -95 200 -94 214 1 3
14 -9 29 -27 16 -19 46 -74 66 -123z m317 -156 c27 -24 22 -36 -7 -17 -14 9
-25 20 -25 25 0 14 11 11 32 -8z m556 -10 c5 -18 -20 -16 -44 2 -18 15 -18 15
10 13 16 -2 31 -9 34 -15z m-173 -30 c71 -22 72 -24 31 -45 -42 -21 -44 -31
-14 -52 l22 -16 -27 0 c-38 0 -34 -15 13 -46 22 -15 37 -31 34 -36 -3 -5 11
-27 31 -49 24 -27 34 -46 30 -58 -4 -13 3 -25 22 -39 47 -34 17 -36 -39 -3
-29 17 -91 51 -139 75 -47 24 -91 51 -98 60 -17 20 -13 20 33 1 50 -21 45 -7
-14 40 -28 22 -46 41 -40 43 17 6 11 25 -17 54 -26 27 -26 28 -5 28 16 0 22 6
22 21 0 18 4 20 27 14 22 -5 25 -4 15 8 -7 8 -9 16 -6 19 8 8 60 0 119 -19z
m-259 -54 l19 -22 -32 17 c-35 18 -41 26 -20 26 8 0 22 -10 33 -21z m-116 -69
c0 -15 -5 -12 -26 11 -19 22 -19 22 4 10 12 -6 22 -16 22 -21z m795 -220 c3
-5 1 -10 -4 -10 -6 0 -11 5 -11 10 0 6 2 10 4 10 3 0 8 -4 11 -10z m-370 -50
c3 -5 -3 -10 -14 -10 -11 0 -23 5 -26 10 -3 6 3 10 14 10 11 0 23 -4 26 -10z
m243 -26 c20 -9 31 -18 25 -21 -15 -6 -80 15 -88 28 -9 14 22 11 63 -7z m-148
-14 c0 -5 -9 -6 -20 -3 -11 3 -20 9 -20 13 0 5 9 6 20 3 11 -3 20 -9 20 -13z
m36 -54 c105 -36 138 -54 124 -71 -36 -43 -220 -13 -275 45 -15 16 -24 33 -21
39 12 19 99 12 172 -13z m224 -31 c30 -19 63 -35 72 -35 24 0 48 -11 48 -21 0
-15 -69 -10 -103 8 -45 23 -85 54 -91 70 -9 22 17 15 74 -22z m135 15 c21 -11
54 -23 72 -26 51 -10 39 -24 -14 -18 -46 6 -153 47 -153 58 0 13 59 4 95 -14z
m621 -87 c-10 -10 -19 5 -10 18 6 11 8 11 12 0 2 -7 1 -15 -2 -18z m-623 -50
c29 -16 30 -18 10 -21 -20 -3 -83 22 -83 33 0 11 43 4 73 -12z m712 -23 c3 -5
1 -10 -4 -10 -6 0 -11 5 -11 10 0 6 2 10 4 10 3 0 8 -4 11 -10z m-701 -94 c38
-20 38 -21 12 -24 -29 -4 -108 36 -100 50 7 11 37 2 88 -26z m61 24 c3 -5 -1
-10 -9 -10 -9 0 -16 5 -16 10 0 6 4 10 9 10 6 0 13 -4 16 -10z m-195 -30 c0
-5 -6 -10 -14 -10 -8 0 -18 5 -21 10 -3 6 3 10 14 10 12 0 21 -4 21 -10z
m2190 -85 c0 -8 -4 -15 -10 -15 -5 0 -10 7 -10 15 0 8 5 15 10 15 6 0 10 -7
10 -15z m-2220 -24 c0 -10 -30 -24 -37 -17 -3 3 -2 9 2 15 8 13 35 15 35 2z
m220 -7 c0 -2 -12 -4 -26 -4 -14 0 -23 4 -20 9 6 8 46 4 46 -5z m105 -25 c4
-6 5 -13 2 -16 -8 -7 -47 7 -47 18 0 13 37 11 45 -2z m275 -29 c0 -5 -13 -10
-30 -10 -16 0 -30 5 -30 10 0 6 14 10 30 10 17 0 30 -4 30 -10z m1430 -9 c0
-12 -20 -25 -27 -18 -7 7 6 27 18 27 5 0 9 -4 9 -9z m-1870 -152 c80 -39 190
-88 245 -109 55 -21 127 -50 160 -65 105 -47 133 -54 298 -76 122 -16 191 -20
281 -15 83 3 125 2 140 -7 14 -8 72 -11 181 -9 255 4 293 -19 62 -37 -118 -10
-338 -3 -477 15 -176 22 -450 69 -525 89 -169 45 -482 180 -545 234 -16 14 8
5 65 -22 119 -59 216 -99 222 -93 3 3 -48 32 -113 64 -122 61 -182 101 -154
102 8 0 80 -32 160 -71z m30 50 c0 -5 -7 -9 -15 -9 -15 0 -20 12 -9 23 8 8 24
-1 24 -14z m1028 -58 c6 -37 -6 -69 -30 -82 -12 -7 -23 -8 -25 -3 -11 32 -20
36 -45 20 -32 -21 -41 -11 -22 25 15 30 78 70 104 66 8 -1 16 -13 18 -26z
m-133 -1 c-3 -5 -11 -10 -16 -10 -6 0 -7 5 -4 10 3 6 11 10 16 10 6 0 7 -4 4
-10z m1058 -17 c81 -10 147 -21 147 -24 0 -21 -76 -30 -183 -23 -61 4 -136 8
-166 8 -65 1 -78 20 -29 41 43 19 56 18 231 -2z m-813 -2 c0 -11 -58 -61 -71
-61 -18 0 -9 39 13 54 25 18 58 21 58 7z m1290 -5 c0 -3 -4 -8 -10 -11 -5 -3
-10 -1 -10 4 0 6 5 11 10 11 6 0 10 -2 10 -4z m-220 -16 c0 -5 -4 -10 -10 -10
-5 0 -10 5 -10 10 0 6 5 10 10 10 6 0 10 -4 10 -10z m495 1 c-14 -14 -138 -25
-172 -16 l-28 8 30 7 c46 12 181 12 170 1z m-2495 -21 c0 -5 -9 -10 -20 -10
-11 0 -20 5 -20 10 0 6 9 10 20 10 11 0 20 -4 20 -10z m1030 -9 c0 -5 -11 -16
-25 -25 -21 -14 -25 -14 -25 -2 0 8 8 20 18 25 21 13 32 14 32 2z m-560 -21
c0 -5 -4 -10 -10 -10 -5 0 -10 5 -10 10 0 6 5 10 10 10 6 0 10 -4 10 -10z
m445 -10 c-18 -20 -45 -27 -45 -12 0 15 24 32 44 32 18 0 19 -1 1 -20z m205
-15 c-7 -8 -20 -15 -28 -15 -13 0 -12 3 4 15 25 19 40 19 24 0z m-914 -6 c99
-17 214 -51 214 -61 0 -19 -126 1 -215 33 -113 41 -113 49 1 28z m844 -4 c-7
-8 -19 -15 -27 -15 -13 0 -13 3 -3 15 7 8 19 15 27 15 13 0 13 -3 3 -15z m127
-10 c-29 -26 -47 -32 -47 -16 0 13 41 41 60 41 10 -1 6 -9 -13 -25z m208 -155
c-3 -5 -10 -10 -16 -10 -5 0 -9 5 -9 10 0 6 7 10 16 10 8 0 12 -4 9 -10z"/>
<path d="M2010 4261 c-5 -11 -10 -31 -10 -45 0 -21 6 -26 35 -32 45 -8 65 0
65 26 0 24 -42 70 -64 70 -9 0 -20 -9 -26 -19z"/>
<path d="M2151 4234 c-23 -29 -27 -44 -11 -44 6 0 10 6 10 14 0 7 14 17 32 22
39 12 49 34 15 34 -16 0 -34 -10 -46 -26z"/>
<path d="M1620 4159 c-53 -25 -38 -37 25 -19 24 7 57 9 74 5 38 -8 111 13 90
26 -27 17 -142 10 -189 -12z"/>
<path d="M1545 4110 c-3 -5 -1 -10 4 -10 6 0 11 5 11 10 0 6 -2 10 -4 10 -3 0
-8 -4 -11 -10z"/>
<path d="M1433 4074 c-8 -20 21 -44 53 -44 34 0 41 21 14 42 -28 22 -59 23
-67 2z"/>
<path d="M1355 4070 c-3 -5 1 -10 9 -10 9 0 16 5 16 10 0 6 -4 10 -9 10 -6 0
-13 -4 -16 -10z"/>
<path d="M1345 4008 c-14 -22 -14 -23 8 -29 13 -3 42 -17 64 -30 23 -13 45
-21 49 -17 14 15 -8 59 -39 78 -42 26 -62 25 -82 -2z"/>
<path d="M2185 3798 c-26 -45 -34 -178 -11 -197 23 -19 45 -7 62 35 17 40 35
127 28 134 -8 8 -22 -21 -28 -61 -3 -22 -11 -39 -16 -39 -13 0 -13 25 1 74 11
38 6 86 -9 86 -4 0 -16 -14 -27 -32z"/>
<path d="M1744 3617 c-7 -20 3 -37 22 -37 18 0 18 24 -1 40 -12 10 -16 9 -21
-3z"/>
<path d="M1650 3565 c4 -36 12 -49 39 -70 19 -14 44 -25 54 -25 20 0 20 0 1
21 -15 17 -16 22 -4 29 8 5 12 10 10 12 -3 2 -23 17 -45 34 -62 47 -61 47 -55
-1z"/>
<path d="M1600 3463 c8 -3 45 -18 82 -34 76 -33 97 -37 78 -14 -16 19 -114 55
-148 54 -15 0 -20 -3 -12 -6z"/>
<path d="M1550 3437 c0 -31 41 -66 102 -86 86 -29 98 -27 62 10 -54 58 -164
109 -164 76z"/>
<path d="M2137 3429 c4 -13 8 -18 11 -10 2 7 -1 18 -6 23 -8 8 -9 4 -5 -13z"/>
<path d="M1489 3381 c18 -33 81 -81 106 -81 14 0 25 4 25 8 0 13 -42 48 -85
71 -49 26 -59 26 -46 2z"/>
<path d="M1470 3331 c0 -6 5 -13 10 -16 6 -3 10 -13 10 -21 0 -13 -6 -12 -35
6 -46 28 -44 14 5 -48 59 -76 110 -79 110 -8 0 33 -23 62 -67 85 -26 13 -33
14 -33 2z"/>
<path d="M1650 3237 c0 -8 7 -20 15 -27 12 -10 15 -10 15 3 0 8 -7 20 -15 27
-12 10 -15 10 -15 -3z"/>
<path d="M1600 3229 c0 -5 5 -7 10 -4 6 3 10 8 10 11 0 2 -4 4 -10 4 -5 0 -10
-5 -10 -11z"/>
<path d="M1992 3205 c0 -16 2 -22 5 -12 2 9 2 23 0 30 -3 6 -5 -1 -5 -18z"/>
<path d="M2090 3205 c-6 -16 -10 -59 -8 -95 3 -51 10 -75 33 -112 17 -27 37
-47 45 -45 21 3 36 64 22 88 -7 10 -12 39 -12 65 0 37 -4 47 -20 51 -11 3 -20
13 -20 22 0 10 -6 26 -14 37 -14 18 -15 18 -26 -11z"/>
<path d="M2243 3195 c0 -22 2 -30 4 -17 2 12 2 30 0 40 -3 9 -5 -1 -4 -23z"/>
<path d="M2280 3207 c0 -8 -3 -30 -6 -48 -5 -23 -3 -31 4 -24 15 15 25 72 13
80 -6 3 -11 0 -11 -8z"/>
<path d="M1734 3148 c10 -60 68 -199 88 -212 12 -7 24 -6 42 3 21 12 28 12 41
1 13 -11 14 -10 9 4 -4 9 1 24 10 35 15 16 14 21 -13 62 -33 50 -118 136 -126
127 -4 -3 3 -29 15 -57 36 -83 16 -82 -25 2 -21 42 -40 77 -43 77 -2 0 -2 -19
2 -42z"/>
<path d="M1610 3106 c0 -14 5 -26 10 -26 6 0 10 9 10 19 0 11 -4 23 -10 26 -6
4 -10 -5 -10 -19z"/>
<path d="M1695 3079 c-4 -5 1 -19 11 -30 22 -25 41 -10 25 20 -13 23 -26 27
-36 10z"/>
<path d="M2345 2871 c-3 -5 -1 -12 5 -16 5 -3 10 1 10 9 0 18 -6 21 -15 7z"/>
<path d="M1890 2686 c0 -9 5 -16 10 -16 6 0 10 4 10 9 0 6 -4 13 -10 16 -5 3
-10 -1 -10 -9z"/>
<path d="M2060 2670 c0 -5 5 -10 11 -10 5 0 7 5 4 10 -3 6 -8 10 -11 10 -2 0
-4 -4 -4 -10z"/>
<path d="M2403 2605 c3 -19 13 -45 21 -57 16 -22 16 -22 16 15 0 42 -15 77
-32 77 -7 0 -9 -13 -5 -35z"/>
<path d="M2485 2387 c-4 -10 -5 -21 -1 -24 10 -10 18 4 13 24 -4 17 -4 17 -12
0z"/>
<path d="M2620 2217 c0 -19 27 -53 35 -45 10 10 -4 45 -20 52 -9 3 -15 0 -15
-7z"/>
<path d="M2740 2040 c0 -38 70 -133 86 -117 9 9 -15 65 -44 98 -24 30 -42 37
-42 19z"/>
</g>
</svg>
