<?xml version="1.0" standalone="no"?>
<!DOCTYPE svg PUBLIC "-//W3C//DTD SVG 20010904//EN"
 "http://www.w3.org/TR/2001/REC-SVG-20010904/DTD/svg10.dtd">
<svg version="1.0" xmlns="http://www.w3.org/2000/svg"
 width="900.000000pt" height="900.000000pt" viewBox="0 0 900.000000 900.000000"
 preserveAspectRatio="xMidYMid meet">

<g transform="translate(0.000000,900.000000) scale(0.100000,-0.100000)"
fill="#000000" stroke="none">
<path d="M2666 6959 c-175 -43 -327 -202 -367 -384 -17 -75 -25 -1704 -9
-1781 18 -84 59 -124 129 -124 63 0 98 16 119 54 15 28 18 112 22 901 6 986 2
938 84 1013 52 48 110 67 181 58 44 -5 603 -172 1705 -511 413 -127 502 -154
770 -235 124 -37 313 -95 420 -128 107 -33 308 -95 445 -137 260 -79 315 -104
359 -155 59 -70 57 -22 54 -1376 -3 -1169 -4 -1241 -21 -1279 -50 -110 -164
-163 -287 -131 -30 7 -107 30 -170 51 -63 21 -149 46 -190 57 -70 19 -78 19
-113 5 -48 -20 -77 -69 -77 -128 0 -89 36 -113 286 -189 93 -29 171 -53 174
-55 3 -2 45 -9 92 -15 226 -30 421 67 514 255 66 135 64 80 64 1450 0 789 -4
1264 -10 1305 -6 36 -26 98 -46 138 -67 136 -180 220 -379 280 -55 17 -212 64
-350 106 -137 42 -317 97 -400 122 -82 25 -161 49 -175 54 -14 5 -63 20 -110
34 -47 14 -227 68 -400 121 -173 53 -353 108 -400 122 -47 14 -119 36 -160 48
-123 39 -286 88 -640 195 -184 56 -454 138 -600 182 -248 76 -272 81 -370 84
-58 2 -122 -1 -144 -7z"/>
<path d="M4990 5281 c-83 -26 -139 -77 -184 -171 l-31 -65 0 -1390 0 -1390 26
-56 c48 -102 131 -164 242 -179 68 -10 140 1 198 31 59 30 126 112 151 187
l23 67 3 1290 c2 902 0 1315 -8 1374 -27 202 -141 312 -323 310 -40 0 -83 -4
-97 -8z"/>
<path d="M4086 4935 c-65 -26 -95 -51 -136 -111 -63 -90 -61 -46 -58 -1200 l3
-1049 27 -52 c41 -77 82 -118 150 -153 51 -25 73 -30 133 -30 137 0 227 56
287 178 l33 67 0 1070 0 1070 -27 50 c-35 66 -100 128 -168 159 -74 35 -162
35 -244 1z"/>
<path d="M3235 4607 c-91 -36 -150 -95 -187 -186 l-23 -56 0 -710 0 -710 23
-56 c29 -72 86 -137 148 -169 42 -22 62 -25 144 -25 84 0 101 4 146 27 65 34
118 95 145 167 21 54 22 76 26 586 6 634 -4 898 -34 966 -30 66 -76 114 -145
149 -53 26 -72 30 -137 29 -42 0 -89 -6 -106 -12z"/>
<path d="M2334 4295 c-61 -27 -124 -87 -156 -147 -23 -43 -23 -43 -23 -493 l0
-450 28 -57 c53 -107 149 -162 283 -162 121 1 229 68 278 173 20 45 21 59 21
491 l0 445 -27 50 c-80 150 -259 217 -404 150z"/>
</g>
</svg>
